<svg width="24" height="24" viewBox="0 0 24 24" fill="none" xmlns="http://www.w3.org/2000/svg">
<g clip-path="url(#clip0_21_1560)">
<path fill-rule="evenodd" clip-rule="evenodd" d="M12.4019 3.13418C11.8534 1.41949 10.1561 0.439623 8.39693 0.821916C7.6915 0.97521 6.81281 1.18463 5.74968 1.46949C4.68658 1.75435 3.82091 2.01232 3.13334 2.23227C1.41866 2.7808 0.438762 4.47801 0.821063 6.23725C0.974359 6.94268 1.18378 7.82132 1.46864 8.88445C1.7535 9.94753 2.01148 10.8132 2.23143 11.5007C2.77997 13.2154 4.47719 14.1953 6.23642 13.813C6.94185 13.6597 7.82054 13.4503 8.88362 13.1655C9.94675 12.8806 10.8124 12.6226 11.5 12.4027C11.5499 12.3867 11.5993 12.3697 11.648 12.3518C11.6303 12.4001 11.6135 12.449 11.5976 12.4985C11.3777 13.1861 11.1197 14.0517 10.8348 15.1149C10.55 16.1779 10.3406 17.0566 10.1873 17.7621C9.80496 19.5213 10.7849 21.2185 12.4996 21.767C13.1871 21.987 14.0528 22.245 15.1159 22.5298C16.179 22.8146 17.0577 23.0241 17.7631 23.1774C19.5224 23.5596 21.2196 22.5798 21.7681 20.8651C21.9881 20.1775 22.246 19.3119 22.5309 18.2488C22.8158 17.1857 23.0252 16.307 23.1785 15.6016C23.5608 13.8423 22.5809 12.1451 20.8662 11.5966C20.1786 11.3766 19.313 11.1187 18.2498 10.8338C17.1867 10.549 16.3081 10.3395 15.6026 10.1863C14.9396 10.0422 14.2854 10.0916 13.6981 10.3009C13.907 9.71398 13.9563 9.06026 13.8123 8.39771C13.659 7.69228 13.4496 6.81364 13.1647 5.75051C12.8798 4.68741 12.6218 3.82174 12.4019 3.13418ZM8.80394 2.69487C9.59806 2.5223 10.3288 2.94419 10.5764 3.71818C10.7866 4.37533 11.036 5.21163 11.3133 6.24659C11.5907 7.28154 11.7928 8.13048 11.9393 8.80472C12.1119 9.59879 11.69 10.3295 10.916 10.5772C10.2588 10.7874 9.42254 11.0368 8.38759 11.3141C7.35259 11.5914 6.50365 11.7936 5.82941 11.9401C5.0353 12.1126 4.30457 11.6907 4.05696 10.9168C3.84674 10.2596 3.59732 9.42332 3.32 8.38837C3.04268 7.35342 2.84053 6.50443 2.69402 5.83024C2.52145 5.03613 2.94333 4.30541 3.71734 4.05781C4.37449 3.84758 5.2108 3.59816 6.24576 3.32085C7.28071 3.04353 8.1297 2.84138 8.80394 2.69487ZM8.21087 7.68208C8.47556 7.22375 8.31854 6.63764 7.86017 6.37295C7.4018 6.1083 6.81568 6.26533 6.55104 6.7237L6.42358 6.94445C6.15894 7.40277 6.31596 7.98889 6.77428 8.25358C7.23265 8.51822 7.81877 8.3612 8.08341 7.90283L8.21087 7.68208ZM15.5134 18.597C15.9717 18.3324 16.1289 17.7463 15.8642 17.2879C15.5996 16.8295 15.0135 16.6724 14.5551 16.937L14.3343 17.0645C13.876 17.3291 13.7189 17.9152 13.9835 18.3736C14.2481 18.8319 14.8342 18.9891 15.2926 18.7244L15.5134 18.597ZM19.3822 14.9912C19.6468 15.4496 19.4897 16.0357 19.0313 16.3003L18.8106 16.4278C18.3522 16.6924 17.7661 16.5354 17.5015 16.077C17.2368 15.6186 17.3939 15.0325 17.8523 14.7679L18.0731 14.6404C18.5315 14.3758 19.1176 14.5329 19.3822 14.9912Z" fill="#252525"/>
</g>
<defs>
<clipPath id="clip0_21_1560">
<rect width="24" height="24" fill="white"/>
</clipPath>
</defs>
</svg>
