<svg width="24" height="24" viewBox="0 0 24 24" fill="none" xmlns="http://www.w3.org/2000/svg">
<g clip-path="url(#clip0_21_1563)">
<path fill-rule="evenodd" clip-rule="evenodd" d="M4.33295 3.11927C5.8671 3.01242 8.37256 2.89579 12 2.89579C15.6275 2.89579 18.1329 3.01242 19.667 3.11927C20.3931 3.16984 20.9245 3.69212 20.9874 4.38048C21.1051 5.66988 21.224 7.66494 21.224 10.4659C21.224 13.2669 21.1051 15.2619 20.9874 16.5513C20.9245 17.2396 20.3931 17.7619 19.667 17.8125C18.2324 17.9124 15.9485 18.0209 12.6919 18.0345C12.4652 18.0355 12.2461 18.1168 12.0737 18.2641L8.79284 21.065V18.9373C8.79284 18.4189 8.38061 17.9945 7.86244 17.9794C6.36193 17.9356 5.19432 17.8725 4.33295 17.8125C3.60692 17.7619 3.07547 17.2396 3.01261 16.5513C2.89486 15.2619 2.77604 13.2669 2.77604 10.4659C2.77604 7.66494 2.89486 5.66988 3.01261 4.38048C3.07548 3.69212 3.60692 3.16984 4.33295 3.11927ZM12 0.979126C8.33164 0.979126 5.78161 1.09706 4.19978 1.20723C2.56783 1.3209 1.25515 2.54983 1.10389 4.20616C0.98048 5.55752 0.859376 7.61084 0.859375 10.4659C0.859375 13.3209 0.980475 15.3743 1.10389 16.7256C1.25515 18.3819 2.56783 19.6109 4.19978 19.7246C4.89865 19.7732 5.78645 19.8234 6.87617 19.8643V21.1387C6.87617 22.7518 8.76816 23.6063 9.98482 22.5675L13.0516 19.9493C16.1613 19.9295 18.3742 19.8239 19.8002 19.7246C21.4322 19.6109 22.7448 18.3819 22.8961 16.7256C23.0195 15.3743 23.1406 13.3209 23.1406 10.4659C23.1406 7.61084 23.0195 5.55752 22.8961 4.20616C22.7448 2.54983 21.4322 1.3209 19.8002 1.20724C18.2184 1.09706 15.6684 0.979126 12 0.979126ZM12.7098 4.77771C11.7545 4.81896 10.8877 5.137 10.228 5.59714C9.74514 5.93395 9.28198 6.48499 9.06788 7.05956C8.8606 7.61582 8.90018 8.1317 9.29424 8.55605C9.67417 8.96516 10.3134 8.99247 10.8824 8.62121C11.3171 8.33754 12.0235 7.88564 12.5908 7.56685C12.8424 7.4255 13.1609 7.51165 13.3069 7.76068C13.4528 8.00965 13.3725 8.32969 13.1262 8.48019C13.0056 8.55389 12.8791 8.62907 12.7493 8.70631C12.2686 8.99223 11.7415 9.30584 11.292 9.67222C10.7045 10.1511 10.4238 10.5847 10.4409 10.9815L10.4924 12.2136C10.5107 12.6522 10.8815 12.9928 11.3201 12.9739L11.9708 12.9457C12.409 12.9269 12.7488 12.5563 12.7299 12.1181C12.7207 11.9045 12.8305 11.7059 13.0109 11.5988C13.9868 11.0191 14.7795 10.524 15.327 9.9417C15.8484 9.38702 16.1386 8.76156 16.1009 7.88804C16.0644 7.04327 15.7739 6.24095 15.233 5.6695C14.7033 5.10978 13.892 4.72665 12.7098 4.77771ZM11.6987 13.5501C10.9471 13.5826 10.3642 14.2182 10.3966 14.9697C10.4291 15.7214 11.0647 16.3043 11.8163 16.2719C12.5679 16.2394 13.1509 15.6038 13.1184 14.8522C13.0859 14.1006 12.4503 13.5176 11.6987 13.5501Z" fill="#252525"/>
</g>
<defs>
<clipPath id="clip0_21_1563">
<rect width="24" height="24" fill="white"/>
</clipPath>
</defs>
</svg>
