<svg width="24" height="24" viewBox="0 0 24 24" fill="none" xmlns="http://www.w3.org/2000/svg">
<g clip-path="url(#clip0_21_1332)">
<path fill-rule="evenodd" clip-rule="evenodd" d="M7.63865 2.5C6.81005 2.5 6.13865 3.17154 6.13865 3.99947C6.13865 4.8274 6.81005 5.49895 7.63865 5.49895C8.4673 5.49895 9.13865 4.8274 9.13865 3.99947C9.13865 3.17154 8.4673 2.5 7.63865 2.5ZM1.63867 4.99902H4.28352C4.71372 6.4448 6.0532 7.49895 7.63865 7.49895C9.22415 7.49895 10.5637 6.4448 10.9939 4.99902H17.6387C19.2958 4.99902 20.6387 6.342 20.6387 7.99815C20.6387 9.3705 19.7166 10.5278 18.4578 10.8841C17.9927 9.4972 16.6823 8.49805 15.1387 8.49805C13.5534 8.49805 12.2141 9.5519 11.7837 10.9973H6.63865C3.87745 10.9973 1.63867 13.2353 1.63867 15.9965C1.63867 18.4585 3.41864 20.5046 5.7618 20.919C6.167 22.4038 7.5255 23.4951 9.13865 23.4951C10.724 23.4951 12.0633 22.4411 12.4937 20.9956H16.6609C16.688 21.6218 16.7364 22.0585 16.7863 22.3615C16.8558 22.7844 17.1123 23.1518 17.4984 23.3504C17.8758 23.5446 18.3019 23.5405 18.6643 23.3904C19.1084 23.2064 19.8671 22.8618 20.9959 22.2526C21.768 21.8361 22.299 21.4903 22.6661 21.2134C23.0774 20.9031 23.3612 20.4271 23.3613 19.8729C23.3613 19.3188 23.0775 18.8428 22.6661 18.5324C22.299 18.2554 21.768 17.9097 20.9959 17.4932C19.8672 16.8842 19.1085 16.5396 18.6644 16.3556C18.302 16.2055 17.8759 16.2013 17.4985 16.3955C17.1123 16.5941 16.8558 16.9615 16.7862 17.3846C16.7301 17.7256 16.6759 18.236 16.6517 18.9956H12.4937C12.0634 17.55 10.724 16.4961 9.13865 16.4961C7.595 16.4961 6.28455 17.4953 5.81945 18.8825C4.56069 18.5261 3.63867 17.3688 3.63867 15.9965C3.63867 14.3403 4.98162 12.9973 6.63865 12.9973H11.7836C12.2139 14.443 13.5533 15.497 15.1387 15.497C16.752 15.497 18.1105 14.4056 18.5156 12.9207C20.8588 12.5062 22.6387 10.4601 22.6387 7.99815C22.6387 5.237 20.3999 2.99903 17.6387 2.99903H10.9936C10.5631 1.55371 9.22385 0.5 7.63865 0.5C6.0535 0.5 4.71427 1.55371 4.28379 2.99903H1.63867C1.08639 2.99903 0.638672 3.44674 0.638672 3.99903C0.638672 4.55131 1.08639 4.99902 1.63867 4.99902ZM7.63865 19.9956C7.63865 19.1677 8.31005 18.4961 9.13865 18.4961C9.9673 18.4961 10.6387 19.1677 10.6387 19.9956C10.6387 20.8235 9.9673 21.4951 9.13865 21.4951C8.31005 21.4951 7.63865 20.8235 7.63865 19.9956ZM15.1387 10.498C14.3101 10.498 13.6387 11.1696 13.6387 11.9975C13.6387 12.8255 14.3101 13.497 15.1387 13.497C15.9673 13.497 16.6387 12.8255 16.6387 11.9975C16.6387 11.1696 15.9673 10.498 15.1387 10.498Z" fill="black"/>
</g>
<defs>
<clipPath id="clip0_21_1332">
<rect width="24" height="24" fill="white"/>
</clipPath>
</defs>
</svg>
