<svg width="24" height="24" viewBox="0 0 24 24" fill="none" xmlns="http://www.w3.org/2000/svg">
<path fill-rule="evenodd" clip-rule="evenodd" d="M11.9999 5.05119C6.83335 5.05119 2.65617 9.20947 2.65617 14.3253C2.65617 15.7105 2.96148 17.0224 3.50823 18.2006C3.53468 18.2575 3.58229 18.3056 3.67403 18.3349C3.77435 18.3669 3.91218 18.3678 4.04979 18.3132C5.32489 17.8076 6.999 17.3065 9.03258 17.0438C9.27336 16.121 9.93682 15.3704 10.802 15.0043V9.62021C10.802 8.95862 11.3383 8.42229 11.9999 8.42229C12.6615 8.42229 13.1978 8.95862 13.1978 9.62021V15.0043C14.063 15.3704 14.7265 16.121 14.9673 17.0438C17.0007 17.3065 18.6749 17.8075 19.9502 18.3131C20.0878 18.3676 20.2256 18.3667 20.3259 18.3347C20.4176 18.3054 20.4652 18.2574 20.4917 18.2004C21.0384 17.0223 21.3437 15.7105 21.3437 14.3253C21.3437 9.20947 17.1665 5.05119 11.9999 5.05119ZM0.739502 14.3253C0.739502 8.13872 5.78709 3.13452 11.9999 3.13452C18.2127 3.13452 23.2603 8.13872 23.2603 14.3253C23.2603 15.9951 22.8918 17.5818 22.2303 19.0072C21.6639 20.2276 20.2668 20.5004 19.2439 20.0948C18.1244 19.6511 16.6458 19.2046 14.8419 18.9606C14.3857 20.0799 13.2818 20.8652 11.9999 20.8652C10.718 20.8652 9.61415 20.0799 9.15798 18.9606C7.35402 19.2046 5.8755 19.6512 4.75624 20.0949C3.73326 20.5006 2.33604 20.2278 1.76965 19.0074C1.10813 17.5819 0.739502 15.9951 0.739502 14.3253ZM4.03927 13.3671C3.51 13.3671 3.08094 13.7962 3.08094 14.3255C3.08094 14.8548 3.51 15.2838 4.03927 15.2838H4.50755C5.03682 15.2838 5.46586 14.8548 5.46586 14.3255C5.46586 13.7962 5.03682 13.3671 4.50755 13.3671H4.03927ZM20.9189 14.3255C20.9189 13.7962 20.4898 13.3671 19.9606 13.3671H19.4923C18.963 13.3671 18.534 13.7962 18.534 14.3255C18.534 14.8548 18.963 15.2838 19.4923 15.2838H19.9606C20.4898 15.2838 20.9189 14.8548 20.9189 14.3255ZM12.9583 6.41885C12.9583 5.88956 12.5292 5.46052 11.9999 5.46052C11.4706 5.46052 11.0416 5.88956 11.0416 6.41885V6.88426C11.0416 7.4135 11.4706 7.8426 11.9999 7.8426C12.5292 7.8426 12.9583 7.4135 12.9583 6.88426V6.41885ZM18.3092 8.06014C17.9337 7.68716 17.3249 7.68716 16.9494 8.06014L16.6181 8.38913C16.2426 8.76207 16.2426 9.36683 16.6181 9.73981C16.9936 10.1128 17.6025 10.1128 17.978 9.73981L18.3092 9.41081C18.6848 9.03783 18.6848 8.43312 18.3092 8.06014ZM7.05046 8.06014C6.67494 7.68716 6.06611 7.68716 5.69059 8.06014C5.31506 8.43312 5.31506 9.03783 5.69059 9.41081L6.02184 9.73981C6.39736 10.1128 7.00619 10.1128 7.38171 9.73981C7.75723 9.36683 7.75723 8.76207 7.38171 8.38913L7.05046 8.06014Z" fill="#252525"/>
</svg>
